<svg xmlns="http://www.w3.org/2000/svg" viewBox="0 0 352 260" width="352" height="260" role="img" aria-label="Plano con cuadrícula, el punto C, el triángulo T y cuatro triángulos numerados del 1 al 4." fill="currentColor" font-family="Manrope, Verdana, sans-serif" stroke="currentColor" stroke-linecap="round">
  <line x1="26" y1="26" x2="26" y2="224" stroke-width="0.6" stroke-opacity="0.3"/>
  <line x1="48" y1="26" x2="48" y2="224" stroke-width="0.6" stroke-opacity="0.3"/>
  <line x1="70" y1="26" x2="70" y2="224" stroke-width="0.6" stroke-opacity="0.3"/>
  <line x1="92" y1="26" x2="92" y2="224" stroke-width="0.6" stroke-opacity="0.3"/>
  <line x1="114" y1="26" x2="114" y2="224" stroke-width="0.6" stroke-opacity="0.3"/>
  <line x1="136" y1="26" x2="136" y2="224" stroke-width="0.6" stroke-opacity="0.3"/>
  <line x1="158" y1="26" x2="158" y2="224" stroke-width="0.6" stroke-opacity="0.3"/>
  <line x1="180" y1="26" x2="180" y2="224" stroke-width="0.6" stroke-opacity="0.3"/>
  <line x1="202" y1="26" x2="202" y2="224" stroke-width="0.6" stroke-opacity="0.3"/>
  <line x1="224" y1="26" x2="224" y2="224" stroke-width="0.6" stroke-opacity="0.3"/>
  <line x1="246" y1="26" x2="246" y2="224" stroke-width="0.6" stroke-opacity="0.3"/>
  <line x1="268" y1="26" x2="268" y2="224" stroke-width="0.6" stroke-opacity="0.3"/>
  <line x1="290" y1="26" x2="290" y2="224" stroke-width="0.6" stroke-opacity="0.3"/>
  <line x1="312" y1="26" x2="312" y2="224" stroke-width="0.6" stroke-opacity="0.3"/>
  <line x1="26" y1="224" x2="312" y2="224" stroke-width="0.6" stroke-opacity="0.3"/>
  <line x1="26" y1="202" x2="312" y2="202" stroke-width="0.6" stroke-opacity="0.3"/>
  <line x1="26" y1="180" x2="312" y2="180" stroke-width="0.6" stroke-opacity="0.3"/>
  <line x1="26" y1="158" x2="312" y2="158" stroke-width="0.6" stroke-opacity="0.3"/>
  <line x1="26" y1="136" x2="312" y2="136" stroke-width="0.6" stroke-opacity="0.3"/>
  <line x1="26" y1="114" x2="312" y2="114" stroke-width="0.6" stroke-opacity="0.3"/>
  <line x1="26" y1="92" x2="312" y2="92" stroke-width="0.6" stroke-opacity="0.3"/>
  <line x1="26" y1="70" x2="312" y2="70" stroke-width="0.6" stroke-opacity="0.3"/>
  <line x1="26" y1="48" x2="312" y2="48" stroke-width="0.6" stroke-opacity="0.3"/>
  <line x1="26" y1="26" x2="312" y2="26" stroke-width="0.6" stroke-opacity="0.3"/>
  <line class="eje-x" x1="22" y1="180" x2="324" y2="180" stroke-width="1.3"/>
  <line class="eje-y" x1="158" y1="228" x2="158" y2="14" stroke-width="1.3"/>
  <polygon points="330,180 321,175.5 321,184.5" fill="currentColor" stroke="none"/>
  <polygon points="158,8 153.5,17 162.5,17" fill="currentColor" stroke="none"/>
  <line x1="26" y1="176.5" x2="26" y2="183.5" stroke-width="1.3"/>
  <line x1="48" y1="176.5" x2="48" y2="183.5" stroke-width="1.3"/>
  <line x1="70" y1="176.5" x2="70" y2="183.5" stroke-width="1.3"/>
  <line x1="92" y1="176.5" x2="92" y2="183.5" stroke-width="1.3"/>
  <line x1="114" y1="176.5" x2="114" y2="183.5" stroke-width="1.3"/>
  <line x1="136" y1="176.5" x2="136" y2="183.5" stroke-width="1.3"/>
  <line x1="180" y1="176.5" x2="180" y2="183.5" stroke-width="1.3"/>
  <line x1="202" y1="176.5" x2="202" y2="183.5" stroke-width="1.3"/>
  <line x1="224" y1="176.5" x2="224" y2="183.5" stroke-width="1.3"/>
  <line x1="246" y1="176.5" x2="246" y2="183.5" stroke-width="1.3"/>
  <line x1="268" y1="176.5" x2="268" y2="183.5" stroke-width="1.3"/>
  <line x1="290" y1="176.5" x2="290" y2="183.5" stroke-width="1.3"/>
  <line x1="312" y1="176.5" x2="312" y2="183.5" stroke-width="1.3"/>
  <line x1="154.5" y1="224" x2="161.5" y2="224" stroke-width="1.3"/>
  <line x1="154.5" y1="202" x2="161.5" y2="202" stroke-width="1.3"/>
  <line x1="154.5" y1="158" x2="161.5" y2="158" stroke-width="1.3"/>
  <line x1="154.5" y1="136" x2="161.5" y2="136" stroke-width="1.3"/>
  <line x1="154.5" y1="114" x2="161.5" y2="114" stroke-width="1.3"/>
  <line x1="154.5" y1="92" x2="161.5" y2="92" stroke-width="1.3"/>
  <line x1="154.5" y1="70" x2="161.5" y2="70" stroke-width="1.3"/>
  <line x1="154.5" y1="48" x2="161.5" y2="48" stroke-width="1.3"/>
  <line x1="154.5" y1="26" x2="161.5" y2="26" stroke-width="1.3"/>
  <polygon class="figura" data-vertices="=4,3;=6,3;=4,5" points="246,114 290,114 246,70" fill="none" stroke-width="1.5" stroke-linejoin="round"/>
  <polygon class="figura" data-vertices="=2,3;=2,5;=0,3" points="202,114 202,70 158,114" fill="none" stroke-width="1.5" stroke-linejoin="round"/>
  <polygon class="figura" data-vertices="=-3,4;=-3,6;=-5,4" points="92,92 92,48 48,92" fill="none" stroke-width="1.5" stroke-linejoin="round"/>
  <polygon class="figura" data-vertices="=4,1;=4,-1;=6,1" points="246,158 246,202 290,158" fill="none" stroke-width="1.5" stroke-linejoin="round"/>
  <polygon class="figura" data-vertices="=-1,1;=-1,3;=-3,1" points="136,158 136,114 92,158" fill="none" stroke-width="1.5" stroke-linejoin="round"/>
  <circle class="punto" data-nombre="C" data-x="3" data-y="2" cx="224" cy="136" r="3.2" fill="currentColor" stroke="none"/>
  <text x="150" y="192" font-size="11" text-anchor="middle" dominant-baseline="central">0</text>
  <text x="328" y="168" font-size="14" text-anchor="middle" dominant-baseline="central" font-style="italic">x</text>
  <text x="170" y="14" font-size="14" text-anchor="middle" dominant-baseline="central" font-style="italic">y</text>
  <text x="260.67" y="99.33" font-size="13" text-anchor="middle" dominant-baseline="central" font-style="italic">T</text>
  <text x="187.33" y="99.33" font-size="13" text-anchor="middle" dominant-baseline="central">1</text>
  <text x="77.33" y="77.33" font-size="13" text-anchor="middle" dominant-baseline="central">2</text>
  <text x="260.67" y="172.67" font-size="13" text-anchor="middle" dominant-baseline="central">3</text>
  <text x="121.33" y="143.33" font-size="13" text-anchor="middle" dominant-baseline="central">4</text>
  <text x="234" y="147" font-size="14" text-anchor="middle" dominant-baseline="central">C</text>
</svg>
