<svg xmlns="http://www.w3.org/2000/svg" viewBox="0 0 300 218" width="300" height="218" role="img" aria-label="Plano cartesiano con cuadrícula. En cada eje están rotulados solo el 2 y el 4. Están el triángulo ABC y su imagen A'B'C' por una traslación." fill="currentColor" font-family="Manrope, Verdana, sans-serif" stroke="currentColor" stroke-linecap="round">
  <line x1="26" y1="26" x2="26" y2="182" stroke-width="0.6" stroke-opacity="0.3"/>
  <line x1="52" y1="26" x2="52" y2="182" stroke-width="0.6" stroke-opacity="0.3"/>
  <line x1="78" y1="26" x2="78" y2="182" stroke-width="0.6" stroke-opacity="0.3"/>
  <line x1="104" y1="26" x2="104" y2="182" stroke-width="0.6" stroke-opacity="0.3"/>
  <line x1="130" y1="26" x2="130" y2="182" stroke-width="0.6" stroke-opacity="0.3"/>
  <line x1="156" y1="26" x2="156" y2="182" stroke-width="0.6" stroke-opacity="0.3"/>
  <line x1="182" y1="26" x2="182" y2="182" stroke-width="0.6" stroke-opacity="0.3"/>
  <line x1="208" y1="26" x2="208" y2="182" stroke-width="0.6" stroke-opacity="0.3"/>
  <line x1="234" y1="26" x2="234" y2="182" stroke-width="0.6" stroke-opacity="0.3"/>
  <line x1="260" y1="26" x2="260" y2="182" stroke-width="0.6" stroke-opacity="0.3"/>
  <line x1="26" y1="182" x2="260" y2="182" stroke-width="0.6" stroke-opacity="0.3"/>
  <line x1="26" y1="156" x2="260" y2="156" stroke-width="0.6" stroke-opacity="0.3"/>
  <line x1="26" y1="130" x2="260" y2="130" stroke-width="0.6" stroke-opacity="0.3"/>
  <line x1="26" y1="104" x2="260" y2="104" stroke-width="0.6" stroke-opacity="0.3"/>
  <line x1="26" y1="78" x2="260" y2="78" stroke-width="0.6" stroke-opacity="0.3"/>
  <line x1="26" y1="52" x2="260" y2="52" stroke-width="0.6" stroke-opacity="0.3"/>
  <line x1="26" y1="26" x2="260" y2="26" stroke-width="0.6" stroke-opacity="0.3"/>
  <line class="eje-x" x1="22" y1="130" x2="272" y2="130" stroke-width="1.3"/>
  <line class="eje-y" x1="156" y1="186" x2="156" y2="14" stroke-width="1.3"/>
  <polygon points="278,130 269,125.5 269,134.5" fill="currentColor" stroke="none"/>
  <polygon points="156,8 151.5,17 160.5,17" fill="currentColor" stroke="none"/>
  <line x1="26" y1="126.5" x2="26" y2="133.5" stroke-width="1.3"/>
  <line x1="52" y1="126.5" x2="52" y2="133.5" stroke-width="1.3"/>
  <line x1="78" y1="126.5" x2="78" y2="133.5" stroke-width="1.3"/>
  <line x1="104" y1="126.5" x2="104" y2="133.5" stroke-width="1.3"/>
  <line x1="130" y1="126.5" x2="130" y2="133.5" stroke-width="1.3"/>
  <line x1="182" y1="126.5" x2="182" y2="133.5" stroke-width="1.3"/>
  <line x1="208" y1="126.5" x2="208" y2="133.5" stroke-width="1.3"/>
  <line x1="234" y1="126.5" x2="234" y2="133.5" stroke-width="1.3"/>
  <line x1="260" y1="126.5" x2="260" y2="133.5" stroke-width="1.3"/>
  <line x1="152.5" y1="182" x2="159.5" y2="182" stroke-width="1.3"/>
  <line x1="152.5" y1="156" x2="159.5" y2="156" stroke-width="1.3"/>
  <line x1="152.5" y1="104" x2="159.5" y2="104" stroke-width="1.3"/>
  <line x1="152.5" y1="78" x2="159.5" y2="78" stroke-width="1.3"/>
  <line x1="152.5" y1="52" x2="159.5" y2="52" stroke-width="1.3"/>
  <line x1="152.5" y1="26" x2="159.5" y2="26" stroke-width="1.3"/>
  <polygon class="figura" data-vertices="A=-8,2;B=-4,2;C=-8,6" points="52,104 104,104 52,52" fill="none" stroke-width="1.5" stroke-linejoin="round"/>
  <circle class="punto" data-nombre="A" data-x="-8" data-y="2" cx="52" cy="104" r="3.2" fill="currentColor" stroke="none"/>
  <circle class="punto" data-nombre="B" data-x="-4" data-y="2" cx="104" cy="104" r="3.2" fill="currentColor" stroke="none"/>
  <circle class="punto" data-nombre="C" data-x="-8" data-y="6" cx="52" cy="52" r="3.2" fill="currentColor" stroke="none"/>
  <polygon class="figura" data-vertices="A'=2,-2;B'=6,-2;C'=2,2" points="182,156 234,156 182,104" fill="none" stroke-width="1.5" stroke-linejoin="round"/>
  <circle class="punto" data-nombre="A'" data-x="2" data-y="-2" cx="182" cy="156" r="3.2" fill="currentColor" stroke="none"/>
  <circle class="punto" data-nombre="B'" data-x="6" data-y="-2" cx="234" cy="156" r="3.2" fill="currentColor" stroke="none"/>
  <circle class="punto" data-nombre="C'" data-x="2" data-y="2" cx="182" cy="104" r="3.2" fill="currentColor" stroke="none"/>
  <text x="182" y="143" font-size="11" text-anchor="middle" dominant-baseline="central">2</text>
  <text x="208" y="143" font-size="11" text-anchor="middle" dominant-baseline="central">4</text>
  <text x="149" y="104" font-size="11" text-anchor="end" dominant-baseline="central">2</text>
  <text x="149" y="78" font-size="11" text-anchor="end" dominant-baseline="central">4</text>
  <text x="148" y="142" font-size="11" text-anchor="middle" dominant-baseline="central">0</text>
  <text x="276" y="118" font-size="14" text-anchor="middle" dominant-baseline="central" font-style="italic">x</text>
  <text x="168" y="14" font-size="14" text-anchor="middle" dominant-baseline="central" font-style="italic">y</text>
  <text x="42" y="115" font-size="14" text-anchor="middle" dominant-baseline="central">A</text>
  <text x="114" y="115" font-size="14" text-anchor="middle" dominant-baseline="central">B</text>
  <text x="42" y="42" font-size="14" text-anchor="middle" dominant-baseline="central">C</text>
  <text x="172" y="167" font-size="14" text-anchor="middle" dominant-baseline="central">A'</text>
  <text x="244" y="167" font-size="14" text-anchor="middle" dominant-baseline="central">B'</text>
  <text x="172" y="94" font-size="14" text-anchor="middle" dominant-baseline="central">C'</text>
</svg>
