<svg xmlns="http://www.w3.org/2000/svg" viewBox="0 0 242 194" width="242" height="194" role="img" aria-label="Plano cartesiano con cuadrícula. En cada eje están rotulados solo el 5 y el 10. Hay un punto marcado, P." fill="currentColor" font-family="Manrope, Verdana, sans-serif" stroke="currentColor" stroke-linecap="round">
  <line x1="26" y1="26" x2="26" y2="158" stroke-width="0.6" stroke-opacity="0.3"/>
  <line x1="48" y1="26" x2="48" y2="158" stroke-width="0.6" stroke-opacity="0.3"/>
  <line x1="70" y1="26" x2="70" y2="158" stroke-width="0.6" stroke-opacity="0.3"/>
  <line x1="92" y1="26" x2="92" y2="158" stroke-width="0.6" stroke-opacity="0.3"/>
  <line x1="114" y1="26" x2="114" y2="158" stroke-width="0.6" stroke-opacity="0.3"/>
  <line x1="136" y1="26" x2="136" y2="158" stroke-width="0.6" stroke-opacity="0.3"/>
  <line x1="158" y1="26" x2="158" y2="158" stroke-width="0.6" stroke-opacity="0.3"/>
  <line x1="180" y1="26" x2="180" y2="158" stroke-width="0.6" stroke-opacity="0.3"/>
  <line x1="202" y1="26" x2="202" y2="158" stroke-width="0.6" stroke-opacity="0.3"/>
  <line x1="26" y1="158" x2="202" y2="158" stroke-width="0.6" stroke-opacity="0.3"/>
  <line x1="26" y1="136" x2="202" y2="136" stroke-width="0.6" stroke-opacity="0.3"/>
  <line x1="26" y1="114" x2="202" y2="114" stroke-width="0.6" stroke-opacity="0.3"/>
  <line x1="26" y1="92" x2="202" y2="92" stroke-width="0.6" stroke-opacity="0.3"/>
  <line x1="26" y1="70" x2="202" y2="70" stroke-width="0.6" stroke-opacity="0.3"/>
  <line x1="26" y1="48" x2="202" y2="48" stroke-width="0.6" stroke-opacity="0.3"/>
  <line x1="26" y1="26" x2="202" y2="26" stroke-width="0.6" stroke-opacity="0.3"/>
  <line class="eje-x" x1="22" y1="92" x2="214" y2="92" stroke-width="1.3"/>
  <line class="eje-y" x1="114" y1="162" x2="114" y2="14" stroke-width="1.3"/>
  <polygon points="220,92 211,87.5 211,96.5" fill="currentColor" stroke="none"/>
  <polygon points="114,8 109.5,17 118.5,17" fill="currentColor" stroke="none"/>
  <line x1="26" y1="88.5" x2="26" y2="95.5" stroke-width="1.3"/>
  <line x1="48" y1="88.5" x2="48" y2="95.5" stroke-width="1.3"/>
  <line x1="70" y1="88.5" x2="70" y2="95.5" stroke-width="1.3"/>
  <line x1="92" y1="88.5" x2="92" y2="95.5" stroke-width="1.3"/>
  <line x1="136" y1="88.5" x2="136" y2="95.5" stroke-width="1.3"/>
  <line x1="158" y1="88.5" x2="158" y2="95.5" stroke-width="1.3"/>
  <line x1="180" y1="88.5" x2="180" y2="95.5" stroke-width="1.3"/>
  <line x1="202" y1="88.5" x2="202" y2="95.5" stroke-width="1.3"/>
  <line x1="110.5" y1="158" x2="117.5" y2="158" stroke-width="1.3"/>
  <line x1="110.5" y1="136" x2="117.5" y2="136" stroke-width="1.3"/>
  <line x1="110.5" y1="114" x2="117.5" y2="114" stroke-width="1.3"/>
  <line x1="110.5" y1="70" x2="117.5" y2="70" stroke-width="1.3"/>
  <line x1="110.5" y1="48" x2="117.5" y2="48" stroke-width="1.3"/>
  <line x1="110.5" y1="26" x2="117.5" y2="26" stroke-width="1.3"/>
  <circle class="punto" data-nombre="P" data-x="15" data-y="-10" cx="180" cy="136" r="3.2" fill="currentColor" stroke="none"/>
  <text x="136" y="105" font-size="11" text-anchor="middle" dominant-baseline="central">5</text>
  <text x="158" y="105" font-size="11" text-anchor="middle" dominant-baseline="central">10</text>
  <text x="107" y="70" font-size="11" text-anchor="end" dominant-baseline="central">5</text>
  <text x="107" y="48" font-size="11" text-anchor="end" dominant-baseline="central">10</text>
  <text x="106" y="104" font-size="11" text-anchor="middle" dominant-baseline="central">0</text>
  <text x="218" y="80" font-size="14" text-anchor="middle" dominant-baseline="central" font-style="italic">x</text>
  <text x="126" y="14" font-size="14" text-anchor="middle" dominant-baseline="central" font-style="italic">y</text>
  <text x="193" y="136" font-size="14" text-anchor="middle" dominant-baseline="central">P</text>
</svg>
