<svg xmlns="http://www.w3.org/2000/svg" viewBox="0 0 274 244" width="274" height="244" role="img" aria-label="El punto M está una unidad a la izquierda del eje y y tres unidades arriba del eje x. Líneas punteadas bajan de M a cada eje: M = (−1, 3)." fill="currentColor" font-family="Manrope, Verdana, sans-serif" stroke="currentColor" stroke-linecap="round">
  <line x1="26" y1="26" x2="26" y2="208" stroke-width="0.6" stroke-opacity="0.3"/>
  <line x1="52" y1="26" x2="52" y2="208" stroke-width="0.6" stroke-opacity="0.3"/>
  <line x1="78" y1="26" x2="78" y2="208" stroke-width="0.6" stroke-opacity="0.3"/>
  <line x1="104" y1="26" x2="104" y2="208" stroke-width="0.6" stroke-opacity="0.3"/>
  <line x1="130" y1="26" x2="130" y2="208" stroke-width="0.6" stroke-opacity="0.3"/>
  <line x1="156" y1="26" x2="156" y2="208" stroke-width="0.6" stroke-opacity="0.3"/>
  <line x1="182" y1="26" x2="182" y2="208" stroke-width="0.6" stroke-opacity="0.3"/>
  <line x1="208" y1="26" x2="208" y2="208" stroke-width="0.6" stroke-opacity="0.3"/>
  <line x1="234" y1="26" x2="234" y2="208" stroke-width="0.6" stroke-opacity="0.3"/>
  <line x1="26" y1="208" x2="234" y2="208" stroke-width="0.6" stroke-opacity="0.3"/>
  <line x1="26" y1="182" x2="234" y2="182" stroke-width="0.6" stroke-opacity="0.3"/>
  <line x1="26" y1="156" x2="234" y2="156" stroke-width="0.6" stroke-opacity="0.3"/>
  <line x1="26" y1="130" x2="234" y2="130" stroke-width="0.6" stroke-opacity="0.3"/>
  <line x1="26" y1="104" x2="234" y2="104" stroke-width="0.6" stroke-opacity="0.3"/>
  <line x1="26" y1="78" x2="234" y2="78" stroke-width="0.6" stroke-opacity="0.3"/>
  <line x1="26" y1="52" x2="234" y2="52" stroke-width="0.6" stroke-opacity="0.3"/>
  <line x1="26" y1="26" x2="234" y2="26" stroke-width="0.6" stroke-opacity="0.3"/>
  <line class="eje-x" x1="22" y1="130" x2="246" y2="130" stroke-width="1.3"/>
  <line class="eje-y" x1="130" y1="212" x2="130" y2="14" stroke-width="1.3"/>
  <polygon points="252,130 243,125.5 243,134.5" fill="currentColor" stroke="none"/>
  <polygon points="130,8 125.5,17 134.5,17" fill="currentColor" stroke="none"/>
  <line x1="26" y1="126.5" x2="26" y2="133.5" stroke-width="1.3"/>
  <line x1="52" y1="126.5" x2="52" y2="133.5" stroke-width="1.3"/>
  <line x1="78" y1="126.5" x2="78" y2="133.5" stroke-width="1.3"/>
  <line x1="104" y1="126.5" x2="104" y2="133.5" stroke-width="1.3"/>
  <line x1="156" y1="126.5" x2="156" y2="133.5" stroke-width="1.3"/>
  <line x1="182" y1="126.5" x2="182" y2="133.5" stroke-width="1.3"/>
  <line x1="208" y1="126.5" x2="208" y2="133.5" stroke-width="1.3"/>
  <line x1="234" y1="126.5" x2="234" y2="133.5" stroke-width="1.3"/>
  <line x1="126.5" y1="208" x2="133.5" y2="208" stroke-width="1.3"/>
  <line x1="126.5" y1="182" x2="133.5" y2="182" stroke-width="1.3"/>
  <line x1="126.5" y1="156" x2="133.5" y2="156" stroke-width="1.3"/>
  <line x1="126.5" y1="104" x2="133.5" y2="104" stroke-width="1.3"/>
  <line x1="126.5" y1="78" x2="133.5" y2="78" stroke-width="1.3"/>
  <line x1="126.5" y1="52" x2="133.5" y2="52" stroke-width="1.3"/>
  <line x1="126.5" y1="26" x2="133.5" y2="26" stroke-width="1.3"/>
  <line class="guia" x1="104" y1="52" x2="104" y2="130" stroke-width="1.1" stroke-dasharray="3 3"/>
  <line class="guia" x1="104" y1="52" x2="130" y2="52" stroke-width="1.1" stroke-dasharray="3 3"/>
  <circle class="punto" data-nombre="M" data-x="-1" data-y="3" cx="104" cy="52" r="3.2" fill="currentColor" stroke="none"/>
  <text x="26" y="143" font-size="11" text-anchor="middle" dominant-baseline="central">−4</text>
  <text x="52" y="143" font-size="11" text-anchor="middle" dominant-baseline="central">−3</text>
  <text x="78" y="143" font-size="11" text-anchor="middle" dominant-baseline="central">−2</text>
  <text x="104" y="143" font-size="11" text-anchor="middle" dominant-baseline="central">−1</text>
  <text x="156" y="143" font-size="11" text-anchor="middle" dominant-baseline="central">1</text>
  <text x="182" y="143" font-size="11" text-anchor="middle" dominant-baseline="central">2</text>
  <text x="208" y="143" font-size="11" text-anchor="middle" dominant-baseline="central">3</text>
  <text x="234" y="143" font-size="11" text-anchor="middle" dominant-baseline="central">4</text>
  <text x="123" y="208" font-size="11" text-anchor="end" dominant-baseline="central">−3</text>
  <text x="123" y="182" font-size="11" text-anchor="end" dominant-baseline="central">−2</text>
  <text x="123" y="156" font-size="11" text-anchor="end" dominant-baseline="central">−1</text>
  <text x="123" y="104" font-size="11" text-anchor="end" dominant-baseline="central">1</text>
  <text x="123" y="78" font-size="11" text-anchor="end" dominant-baseline="central">2</text>
  <text x="123" y="52" font-size="11" text-anchor="end" dominant-baseline="central">3</text>
  <text x="123" y="26" font-size="11" text-anchor="end" dominant-baseline="central">4</text>
  <text x="122" y="142" font-size="11" text-anchor="middle" dominant-baseline="central">0</text>
  <text x="250" y="118" font-size="14" text-anchor="middle" dominant-baseline="central" font-style="italic">x</text>
  <text x="142" y="14" font-size="14" text-anchor="middle" dominant-baseline="central" font-style="italic">y</text>
  <text x="94" y="42" font-size="14" text-anchor="middle" dominant-baseline="central">M</text>
</svg>
