<svg xmlns="http://www.w3.org/2000/svg" viewBox="0 0 420 76" width="420" height="76" role="img" aria-label="Recta numérica con 10 marcas equiespaciadas. rótulos: 0; 4. puntos marcados: M; N" fill="currentColor" font-family="Manrope, Verdana, sans-serif" font-size="15" stroke-linecap="round">
  <line class="eje" x1="14" y1="36" x2="406" y2="36" stroke="currentColor" stroke-width="1.3"/>
  <polygon points="6,36 16,31 16,41"/>
  <polygon points="414,36 404,31 404,41"/>
  <line class="marca" data-valor="-8" x1="30" y1="29" x2="30" y2="43" stroke="currentColor" stroke-width="1.3"/>
  <line class="marca" data-valor="-6" x1="70" y1="29" x2="70" y2="43" stroke="currentColor" stroke-width="1.3"/>
  <line class="marca" data-valor="-4" x1="110" y1="29" x2="110" y2="43" stroke="currentColor" stroke-width="1.3"/>
  <line class="marca" data-valor="-2" x1="150" y1="29" x2="150" y2="43" stroke="currentColor" stroke-width="1.3"/>
  <line class="marca" data-valor="0" x1="190" y1="29" x2="190" y2="43" stroke="currentColor" stroke-width="1.3"/>
  <line class="marca" data-valor="2" x1="230" y1="29" x2="230" y2="43" stroke="currentColor" stroke-width="1.3"/>
  <line class="marca" data-valor="4" x1="270" y1="29" x2="270" y2="43" stroke="currentColor" stroke-width="1.3"/>
  <line class="marca" data-valor="6" x1="310" y1="29" x2="310" y2="43" stroke="currentColor" stroke-width="1.3"/>
  <line class="marca" data-valor="8" x1="350" y1="29" x2="350" y2="43" stroke="currentColor" stroke-width="1.3"/>
  <line class="marca" data-valor="10" x1="390" y1="29" x2="390" y2="43" stroke="currentColor" stroke-width="1.3"/>
  <text class="rotulo" data-valor="0" x="190" y="64" text-anchor="middle">0</text>
  <text class="rotulo" data-valor="4" x="270" y="64" text-anchor="middle">4</text>
  <circle class="punto" data-valor="-6" cx="70" cy="36" r="4.5"/>
  <text class="nombre" x="70" y="18" text-anchor="middle" font-weight="600">M</text>
  <circle class="punto" data-valor="8" cx="350" cy="36" r="4.5"/>
  <text class="nombre" x="350" y="18" text-anchor="middle" font-weight="600">N</text>
</svg>
