<svg xmlns="http://www.w3.org/2000/svg" viewBox="0 0 580 124" width="580" height="124" role="img" aria-label="Recta numérica con 14 marcas equiespaciadas. rótulos: 0; 1. puntos marcados: A; B" fill="currentColor" font-family="Manrope, Verdana, sans-serif" font-size="15" stroke-linecap="round">
  <g transform="translate(0,48)">
  <line class="eje" x1="14" y1="36" x2="566" y2="36" stroke="currentColor" stroke-width="1.3"/>
  <polygon points="6,36 16,31 16,41"/>
  <polygon points="574,36 564,31 564,41"/>
  <line class="marca" data-valor="-6" x1="30" y1="29" x2="30" y2="43" stroke="currentColor" stroke-width="1.3"/>
  <line class="marca" data-valor="-5" x1="70" y1="29" x2="70" y2="43" stroke="currentColor" stroke-width="1.3"/>
  <line class="marca" data-valor="-4" x1="110" y1="29" x2="110" y2="43" stroke="currentColor" stroke-width="1.3"/>
  <line class="marca" data-valor="-3" x1="150" y1="29" x2="150" y2="43" stroke="currentColor" stroke-width="1.3"/>
  <line class="marca" data-valor="-2" x1="190" y1="29" x2="190" y2="43" stroke="currentColor" stroke-width="1.3"/>
  <line class="marca" data-valor="-1" x1="230" y1="29" x2="230" y2="43" stroke="currentColor" stroke-width="1.3"/>
  <line class="marca" data-valor="0" x1="270" y1="29" x2="270" y2="43" stroke="currentColor" stroke-width="1.3"/>
  <line class="marca" data-valor="1" x1="310" y1="29" x2="310" y2="43" stroke="currentColor" stroke-width="1.3"/>
  <line class="marca" data-valor="2" x1="350" y1="29" x2="350" y2="43" stroke="currentColor" stroke-width="1.3"/>
  <line class="marca" data-valor="3" x1="390" y1="29" x2="390" y2="43" stroke="currentColor" stroke-width="1.3"/>
  <line class="marca" data-valor="4" x1="430" y1="29" x2="430" y2="43" stroke="currentColor" stroke-width="1.3"/>
  <line class="marca" data-valor="5" x1="470" y1="29" x2="470" y2="43" stroke="currentColor" stroke-width="1.3"/>
  <line class="marca" data-valor="6" x1="510" y1="29" x2="510" y2="43" stroke="currentColor" stroke-width="1.3"/>
  <line class="marca" data-valor="7" x1="550" y1="29" x2="550" y2="43" stroke="currentColor" stroke-width="1.3"/>
  <text class="rotulo" data-valor="0" x="270" y="64" text-anchor="middle">0</text>
  <text class="rotulo" data-valor="1" x="310" y="64" text-anchor="middle">1</text>
  <circle class="punto" data-valor="-4" cx="110" cy="36" r="4.5"/>
  <text class="nombre" x="110" y="18" text-anchor="middle" font-weight="600">A</text>
  <circle class="punto" data-valor="5" cx="470" cy="36" r="4.5"/>
  <text class="nombre" x="470" y="18" text-anchor="middle" font-weight="600">B</text>
  </g>
  <path class="salto" data-desde="-4" data-hasta="5" fill="none" stroke="currentColor" stroke-width="1.3" d="M110,52 Q290,-8 470,52"/>
  <polygon class="punta" points="470,52 462.14,53.44 464.58,46.13"/>
  <text class="cambio" data-valor="9" x="290" y="17" text-anchor="middle" font-weight="600">+9</text>
</svg>
