<svg xmlns="http://www.w3.org/2000/svg" viewBox="0 0 340 118" width="340" height="118" role="img" aria-label="Recta numérica de −24 a 18 con marcas cada 6. Desde el −18 sale un salto de +12 hacia la derecha que llega al −6, que queda entre −18 y 12" fill="currentColor" font-family="Manrope, Verdana, sans-serif" font-size="15" stroke-linecap="round">
  <g transform="translate(0,42)">
  <line class="eje" x1="14" y1="36" x2="326" y2="36" stroke="currentColor" stroke-width="1.3"/>
  <polygon points="6,36 16,31 16,41"/>
  <polygon points="334,36 324,31 324,41"/>
  <line class="marca" data-valor="-24" x1="30" y1="29" x2="30" y2="43" stroke="currentColor" stroke-width="1.3"/>
  <line class="marca" data-valor="-18" x1="70" y1="29" x2="70" y2="43" stroke="currentColor" stroke-width="1.3"/>
  <line class="marca" data-valor="-12" x1="110" y1="29" x2="110" y2="43" stroke="currentColor" stroke-width="1.3"/>
  <line class="marca" data-valor="-6" x1="150" y1="29" x2="150" y2="43" stroke="currentColor" stroke-width="1.3"/>
  <line class="marca" data-valor="0" x1="190" y1="29" x2="190" y2="43" stroke="currentColor" stroke-width="1.3"/>
  <line class="marca" data-valor="6" x1="230" y1="29" x2="230" y2="43" stroke="currentColor" stroke-width="1.3"/>
  <line class="marca" data-valor="12" x1="270" y1="29" x2="270" y2="43" stroke="currentColor" stroke-width="1.3"/>
  <line class="marca" data-valor="18" x1="310" y1="29" x2="310" y2="43" stroke="currentColor" stroke-width="1.3"/>
  <text class="rotulo" data-valor="-24" x="30" y="64" text-anchor="middle">−24</text>
  <text class="rotulo" data-valor="-18" x="70" y="64" text-anchor="middle">−18</text>
  <text class="rotulo" data-valor="-12" x="110" y="64" text-anchor="middle">−12</text>
  <text class="rotulo" data-valor="-6" x="150" y="64" text-anchor="middle">−6</text>
  <text class="rotulo" data-valor="0" x="190" y="64" text-anchor="middle">0</text>
  <text class="rotulo" data-valor="6" x="230" y="64" text-anchor="middle">6</text>
  <text class="rotulo" data-valor="12" x="270" y="64" text-anchor="middle">12</text>
  <text class="rotulo" data-valor="18" x="310" y="64" text-anchor="middle">18</text>
  <circle class="punto" data-valor="-18" cx="70" cy="36" r="4.5"/>
  <circle class="punto" data-valor="-6" cx="150" cy="36" r="4.5"/>
  </g>
  <path class="salto" data-desde="-18" data-hasta="-6" fill="none" stroke="currentColor" stroke-width="1.3" d="M70,68 Q110,8 150,68"/>
  <polygon class="punta" points="150,68 142.91,64.31 149.32,60.04"/>
  <text class="cambio" data-valor="12" x="110" y="33" text-anchor="middle" font-weight="600">+12</text>
</svg>
